<svg width="16" height="17" viewBox="0 0 16 17" fill="none" xmlns="http://www.w3.org/2000/svg">
<path d="M2.14708 10.8544C1.95147 10.6594 1.9509 10.3429 2.14582 10.1472L7.6108 4.66276C7.82574 4.44705 8.17505 4.44705 8.39 4.66276L13.855 10.1472C14.0499 10.3429 14.0493 10.6594 13.8537 10.8544C13.6581 11.0493 13.3415 11.0487 13.1466 10.8531L8.0004 5.68851L2.85418 10.8531C2.65927 11.0487 2.34269 11.0493 2.14708 10.8544Z" fill="white"/>
<path d="M2.14708 10.8544C1.95147 10.6594 1.9509 10.3429 2.14582 10.1472L7.6108 4.66276C7.82574 4.44705 8.17505 4.44705 8.39 4.66276L13.855 10.1472C14.0499 10.3429 14.0493 10.6594 13.8537 10.8544C13.6581 11.0493 13.3415 11.0487 13.1466 10.8531L8.0004 5.68851L2.85418 10.8531C2.65927 11.0487 2.34269 11.0493 2.14708 10.8544Z" fill="black" fill-opacity="0.75"/>
</svg>
