<svg width="215" height="206" viewBox="0 0 215 206" fill="none" xmlns="http://www.w3.org/2000/svg">
<path d="M213.28 102.577C213.28 113.377 199.85 121.927 196.68 131.667C193.4 141.767 199.13 156.557 193.01 164.967C186.89 173.377 170.95 172.547 162.46 178.727C153.97 184.907 150.05 200.257 139.94 203.537C130.19 206.697 117.94 196.687 107.14 196.687C96.34 196.687 84.08 206.687 74.34 203.537C64.24 200.257 60.23 184.847 51.82 178.727C43.41 172.607 27.45 173.457 21.27 164.967C15.09 156.477 20.88 141.767 17.6 131.667C14.44 121.917 1 113.377 1 102.577C1 91.7768 14.43 83.2268 17.6 73.4868C20.88 63.3868 15.15 48.5968 21.27 40.1868C27.39 31.7768 43.33 32.6068 51.82 26.4268C60.31 20.2468 64.23 4.89681 74.34 1.61681C84.09 -1.54319 96.34 8.46681 107.14 8.46681C117.94 8.46681 130.2 -1.53319 139.94 1.61681C150.04 4.89681 154.05 20.3068 162.46 26.4268C170.87 32.5468 186.83 31.6968 193.01 40.1868C199.19 48.6768 193.4 63.3868 196.68 73.4868C199.85 83.2268 213.28 91.7768 213.28 102.577Z" fill="#14483B" stroke="#F9FFFE" stroke-width="2"/>
<path d="M133.83 190.877C131.87 190.721 129.945 190.27 128.12 189.537L128.31 188.987C130.075 189.694 131.935 190.132 133.83 190.287V190.877ZM78.26 190.667L78.15 190.097C80.014 189.663 81.8452 189.098 83.63 188.407L83.83 188.947C82.0192 189.668 80.1574 190.252 78.26 190.697V190.667ZM75.26 190.527C73.7166 189.301 72.3942 187.819 71.35 186.147L71.82 185.817C72.8235 187.428 74.0912 188.858 75.57 190.047L75.26 190.527ZM136.44 189.347L136.02 188.947C137.297 187.52 138.46 185.995 139.5 184.387L139.98 184.707C138.915 186.355 137.721 187.917 136.41 189.377L136.44 189.347ZM125.44 188.547L123.89 187.957H123.83C122.6 187.487 121.33 186.957 120.03 186.537L120.23 185.997C121.54 186.467 122.81 186.997 124.04 187.427V187.717L124.14 187.447L125.69 188.037L125.44 188.547ZM86.58 187.927L86.37 187.387C88.11 186.717 89.92 186.037 91.81 185.387L92 185.937C90.07 186.607 88.28 187.287 86.54 187.957L86.58 187.927ZM117.3 185.587C115.479 184.989 113.626 184.495 111.75 184.107L111.86 183.537C113.76 183.93 115.637 184.431 117.48 185.037L117.3 185.587ZM94.74 185.077L94.58 184.527C96.4396 183.973 98.3337 183.542 100.25 183.237L100.34 183.807C98.4335 184.112 96.5494 184.543 94.7 185.097L94.74 185.077ZM69.74 183.757L68.47 181.877C67.84 180.877 67.2 179.877 66.53 178.877L67.01 178.557C67.68 179.557 68.32 180.557 68.95 181.557L70.17 183.437L69.74 183.757ZM108.92 183.657C107.023 183.422 105.107 183.369 103.2 183.497V182.917C105.144 182.788 107.096 182.845 109.03 183.087L108.92 183.657ZM141.59 182.307L141.11 181.997L141.39 181.567C142.31 180.137 143.27 178.657 144.31 177.167L144.78 177.497C143.78 178.987 142.78 180.497 141.87 181.887L141.59 182.307ZM64.94 176.547C63.8333 174.98 62.638 173.478 61.36 172.047L61.79 171.657C63.0822 173.104 64.2908 174.623 65.41 176.207L64.94 176.547ZM146.47 175.157L146.01 174.807C147.174 173.255 148.44 171.782 149.8 170.397L150.21 170.807C148.851 172.174 147.585 173.631 146.42 175.167L146.47 175.157ZM59.36 169.997C58.4575 169.145 57.5023 168.35 56.5 167.617C55.97 167.237 55.41 166.857 54.84 166.497L55.15 166.007C55.73 166.377 56.3 166.757 56.84 167.147C57.8635 167.895 58.8388 168.706 59.76 169.577L59.36 169.997ZM152.36 168.857L151.99 168.417C152.52 167.977 153.06 167.547 153.6 167.157C154.624 166.425 155.693 165.757 156.8 165.157L157.08 165.657C155.993 166.258 154.944 166.926 153.94 167.657C153.31 168.017 152.78 168.437 152.27 168.877L152.36 168.857ZM52.36 165.087C50.648 164.227 48.8807 163.482 47.07 162.857L47.26 162.317C49.0947 162.951 50.8854 163.706 52.62 164.577L52.36 165.087ZM159.62 164.347L159.38 163.817C161.153 163.027 162.969 162.34 164.82 161.757L165 162.307C163.145 162.885 161.326 163.569 159.55 164.357L159.62 164.347ZM44.26 161.967C42.49 161.427 40.74 160.967 39.05 160.507L38.7 160.417L38.85 159.857L39.18 159.947C40.89 160.407 42.65 160.877 44.43 161.417L44.26 161.967ZM167.68 161.477L167.52 160.917C168.73 160.577 169.92 160.257 171.08 159.917H171.16L173.1 159.387L173.25 159.947L171.3 160.477H171.24C170.08 160.817 168.89 161.137 167.68 161.487V161.477ZM35.9 159.647C34.018 159.149 32.1761 158.511 30.39 157.737L30.63 157.217C32.3878 157.977 34.1994 158.605 36.05 159.097L35.9 159.647ZM176.05 159.147L175.88 158.597C177.721 158.14 179.477 157.391 181.08 156.377L181.44 156.827C179.781 157.888 177.961 158.672 176.05 159.147ZM28.13 155.777C27.6848 154.102 27.5059 152.368 27.6 150.637C27.6 150.404 27.6 150.167 27.6 149.927H28.13C28.13 150.16 28.13 150.394 28.13 150.627C28.044 152.29 28.2126 153.955 28.63 155.567L28.13 155.777ZM182.63 154.027L182.06 153.957C182.173 152.854 182.223 151.746 182.21 150.637C182.21 149.907 182.21 149.117 182.21 148.217H182.79C182.79 149.127 182.79 149.927 182.79 150.657C182.784 151.78 182.714 152.902 182.58 154.017L182.63 154.027ZM28.27 147.027H27.69C27.69 146.327 27.75 145.657 27.78 145.027C27.84 143.787 27.91 142.517 27.95 141.217H28.53C28.53 142.517 28.42 143.797 28.36 145.037C28.28 145.697 28.25 146.357 28.22 147.057L28.27 147.027ZM182.04 145.307V145.117C181.95 143.277 181.85 141.427 181.82 139.517H182.4C182.4 141.417 182.52 143.267 182.61 145.047V145.277L182.04 145.307ZM28.04 138.307C28.0513 136.396 27.9545 134.487 27.75 132.587L28.32 132.527C28.5289 134.447 28.6291 136.376 28.62 138.307H28.04ZM182.44 136.587H181.86C181.902 134.645 182.073 132.707 182.37 130.787L182.94 130.877C182.615 132.788 182.418 134.719 182.35 136.657L182.44 136.587ZM27.23 129.797C26.9969 128.579 26.6896 127.377 26.31 126.197C26.11 125.577 25.88 124.937 25.62 124.317L26.15 124.097C26.41 124.737 26.65 125.387 26.85 126.017C27.2378 127.22 27.5518 128.446 27.79 129.687L27.23 129.797ZM183.42 128.127L182.86 127.987C183.03 127.317 183.22 126.657 183.42 125.987C183.814 124.785 184.285 123.609 184.83 122.467L185.35 122.717C184.817 123.837 184.356 124.989 183.97 126.167C183.78 126.817 183.59 127.467 183.43 128.127H183.42ZM24.42 121.707C23.5307 120.008 22.5285 118.371 21.42 116.807L21.89 116.477C23.0009 118.075 24.0031 119.745 24.89 121.477L24.42 121.707ZM186.7 120.207L186.2 119.917C187.18 118.244 188.255 116.628 189.42 115.077L189.88 115.417C188.726 116.952 187.661 118.551 186.69 120.207H186.7ZM19.7 114.487C18.7 113.117 17.59 111.817 16.56 110.547L16.13 109.977L16.58 109.617L17.05 110.187C18.05 111.457 19.15 112.767 20.2 114.187L19.7 114.487ZM191.61 113.127L191.16 112.767C191.86 111.877 192.56 111.017 193.25 110.177L194.8 108.267L195.25 108.627L193.72 110.527C193.03 111.387 192.33 112.247 191.63 113.137L191.61 113.127ZM14.3 107.707C13.0663 106.195 11.9656 104.579 11.01 102.877L11.52 102.607C12.4592 104.273 13.5398 105.856 14.75 107.337L14.3 107.707ZM197.04 106.327L196.58 105.987C197.799 104.536 198.75 102.881 199.39 101.097L199.95 101.227C199.295 103.088 198.309 104.816 197.04 106.327ZM10.91 100.067L10.35 99.9371C10.9983 98.0718 11.981 96.3402 13.25 94.8271L13.71 95.1671C12.4909 96.6196 11.5425 98.2793 10.91 100.067ZM198.78 98.5371C197.841 96.8704 196.761 95.2879 195.55 93.8071L196.01 93.4571C197.244 94.9658 198.344 96.5785 199.3 98.2771L198.78 98.5371ZM15.47 92.8771L15.02 92.5171L16.58 90.5871C17.26 89.7471 17.96 88.8971 18.65 88.0171L19.1 88.3771C18.4 89.2571 17.7 90.1171 17.02 90.9571L15.47 92.8771ZM193.74 91.5371L193.26 90.9571C192.26 89.6771 191.16 88.3771 190.12 87.0171L190.58 86.6671C191.58 88.0271 192.67 89.3271 193.7 90.5771L194.19 91.1771L193.74 91.5371ZM20.87 86.0871L20.41 85.7471C21.5602 84.2122 22.6219 82.6129 23.59 80.9571L24.09 81.2471C23.1095 82.9203 22.0345 84.5363 20.87 86.0871ZM188.4 84.6771C187.289 83.0794 186.287 81.409 185.4 79.6771L185.91 79.4071C186.799 81.1056 187.802 82.7426 188.91 84.3071L188.4 84.6771ZM25.4 78.6771L24.88 78.4271C25.4169 77.3047 25.8812 76.149 26.27 74.9671C26.47 74.3471 26.66 73.6971 26.82 73.0471L27.38 73.1871C27.21 73.8471 27.03 74.5071 26.82 75.1871C26.437 76.3747 25.9794 77.5371 25.45 78.6671L25.4 78.6771ZM184.13 77.0771C183.87 76.4371 183.63 75.7771 183.42 75.1371C183.032 73.9373 182.719 72.7151 182.48 71.4771L183.05 71.3671C183.283 72.5813 183.591 73.7802 183.97 74.9571C184.17 75.5871 184.41 76.2271 184.66 76.8571L184.13 77.0771ZM28 70.3271L27.43 70.2371C27.7221 68.3435 27.8892 66.4327 27.93 64.5171H28.51C28.4682 66.4629 28.2979 68.4038 28 70.3271ZM182.05 68.5971C181.841 66.6743 181.74 64.7412 181.75 62.8071H182.33C182.318 64.721 182.415 66.6341 182.62 68.5371L182.05 68.5971ZM27.95 61.5971C27.95 59.6871 27.83 57.8371 27.74 56.0471V55.8771H28.32V56.0571C28.41 57.8971 28.51 59.7471 28.54 61.6671L27.95 61.5971ZM182.38 59.8771H181.8C181.8 58.5671 181.91 57.2871 181.97 56.0371C181.97 55.4471 182.03 54.7871 182.06 54.0871H182.64C182.64 54.7871 182.58 55.4471 182.55 56.0371C182.49 57.3271 182.43 58.6071 182.38 59.8771ZM27.6 52.9671C27.6 52.0471 27.6 51.2471 27.6 50.5171C27.5891 49.3916 27.6425 48.2664 27.76 47.1471L28.33 47.2171C28.2181 48.3134 28.168 49.4151 28.18 50.5171C28.18 51.2471 28.18 52.0371 28.18 52.9471L27.6 52.9671ZM182.74 51.2371H182.13C182.13 50.9971 182.13 50.7604 182.13 50.5271C182.215 48.8718 182.05 47.2131 181.64 45.6071L182.18 45.4071C182.621 47.0759 182.8 48.8032 182.71 50.5271C182.73 50.7604 182.737 50.9971 182.73 51.2371H182.74ZM29.2 44.7871L28.84 44.3371C30.497 43.2706 32.3179 42.4835 34.23 42.0071L34.4 42.5571C32.5575 43.0144 30.8014 43.7675 29.2 44.7871ZM179.66 43.9471C177.902 43.1872 176.091 42.5588 174.24 42.0671L174.4 41.5171C176.282 42.0139 178.124 42.6524 179.91 43.4271L179.66 43.9471ZM37.13 41.7471L36.98 41.1871L38.98 40.6371C40.14 40.3271 41.33 40.0071 42.54 39.6371L42.7 40.1971C41.49 40.5471 40.29 40.8671 39.13 41.1971L37.13 41.7471ZM171.42 41.2971L171.07 41.2071C169.37 40.7571 167.62 40.2771 165.84 39.7371L166.01 39.1871C167.78 39.7271 169.53 40.1871 171.23 40.6471L171.58 40.7371L171.42 41.2971ZM45.53 39.3871L45.35 38.8371C47.1763 38.2724 48.9692 37.6047 50.72 36.8371L50.96 37.3671C49.1896 38.1424 47.3767 38.8168 45.53 39.3871ZM163.13 38.8771C161.295 38.2432 159.505 37.4882 157.77 36.6171L158.03 36.1071C159.742 36.9667 161.509 37.7117 163.32 38.3371L163.13 38.8771ZM53.59 36.0671L53.31 35.5571C54.4005 34.9564 55.4525 34.2884 56.46 33.5571C56.99 33.1771 57.51 32.7571 58.03 32.3271L58.4 32.7671C57.88 33.2071 57.34 33.6271 56.8 34.0171C55.766 34.7533 54.6872 35.4246 53.57 36.0271L53.59 36.0671ZM155.23 35.1771C154.64 34.8071 154.07 34.4271 153.52 34.0271C152.5 33.2822 151.528 32.4739 150.61 31.6071L151.01 31.1871C151.909 32.0359 152.861 32.8274 153.86 33.5571C154.39 33.9471 154.96 34.3271 155.53 34.6871L155.23 35.1771ZM60.55 30.7971L60.14 30.3871C61.4819 29.0217 62.7313 27.5685 63.88 26.0371L64.34 26.3871C63.1682 27.9265 61.8954 29.3864 60.53 30.7571L60.55 30.7971ZM148.55 29.5271C147.254 28.0809 146.042 26.5617 144.92 24.9771L145.39 24.6371C146.497 26.2006 147.692 27.6997 148.97 29.1271L148.55 29.5271ZM66.02 24.0271L65.55 23.6971C66.55 22.2171 67.55 20.6971 68.46 19.3171L68.74 18.8871L69.22 19.1971L68.95 19.6171C68.02 21.0171 67.06 22.5071 66.03 23.9871L66.02 24.0271ZM143.28 22.5971C142.61 21.5971 141.96 20.5971 141.33 19.5971L140.13 17.7071L140.61 17.3871L141.82 19.2471C142.46 20.2471 143.1 21.2471 143.82 22.2471L143.28 22.5971ZM105.13 18.2871C103.867 18.2858 102.604 18.209 101.35 18.0571L101.42 17.4871C103.317 17.722 105.233 17.7756 107.14 17.6471V18.2271C106.5 18.2671 105.81 18.2871 105.13 18.2871ZM110.13 17.8771L110.04 17.3071C111.932 17.007 113.803 16.5827 115.64 16.0371L115.8 16.5871C113.94 17.1408 112.046 17.5717 110.13 17.8771ZM98.53 17.5671C96.6299 17.1773 94.7535 16.6799 92.91 16.0771L93.09 15.5271C94.9104 16.1252 96.7634 16.6193 98.64 17.0071L98.53 17.5671ZM70.86 16.7171L70.38 16.3971C71.4342 14.761 72.6144 13.2096 73.91 11.7571L74.33 12.1571C73.0383 13.5926 71.8613 15.1273 70.81 16.7471L70.86 16.7171ZM118.58 15.7171L118.39 15.1671C120.27 14.5271 122.07 13.8371 123.81 13.1671L124.02 13.7071C122.23 14.3971 120.42 15.0871 118.53 15.7271L118.58 15.7171ZM138.58 15.3071C137.578 13.6984 136.314 12.2687 134.84 11.0771L135.15 10.5871C136.689 11.8192 138.008 13.3036 139.05 14.9771L138.58 15.3071ZM90.13 15.1571C88.8 14.6771 87.53 14.1571 86.29 13.7171L84.71 13.1171L84.91 12.5771L86.49 13.1771C87.72 13.6471 89 14.1771 90.32 14.6071L90.13 15.1571ZM126.68 12.7171L126.48 12.1771C128.291 11.466 130.153 10.891 132.05 10.4571L132.16 11.0271C130.291 11.4501 128.456 12.0117 126.67 12.7071L126.68 12.7171ZM82 12.1371C80.2352 11.4288 78.3748 10.9872 76.48 10.8271V10.2471C78.4364 10.4058 80.3578 10.8575 82.18 11.5871L82 12.1371Z" fill="#F9FFFE"/>
<path d="M129.98 40.407C125.44 35.847 116.66 37.2171 110.37 43.4771C104.08 49.7371 102.67 58.477 107.22 63.067C107.22 63.067 108.01 57.147 111.73 53.437C117.64 47.527 122.32 49.927 129.98 40.407Z" fill="#F9FFFE"/>
<path d="M123.58 48.9972C118.76 52.4272 115.31 51.4972 111.26 57.2872L107.26 63.0672C111.8 67.6272 120.58 66.2572 126.87 59.9972C133.16 53.7372 134.57 44.9972 130.02 40.4072C128.784 43.8521 126.54 46.8452 123.58 48.9972Z" fill="#F9FFFE"/>
<path d="M89.6599 44.5264C85.8799 46.2764 84.7599 51.9164 87.1699 57.1164C89.5799 62.3164 94.5899 65.1164 98.3699 63.3764C96.3196 62.2473 94.6363 60.5536 93.5199 58.4964C91.2499 53.5964 93.7399 51.2864 89.6599 44.5264Z" fill="#F9FFFE"/>
<path d="M93.4599 50.3171C94.4599 54.0071 93.1399 55.8971 95.7599 59.6371L98.3799 63.3771C102.16 61.6271 103.28 55.9871 100.87 50.7871C98.4599 45.5871 93.4499 42.7871 89.6699 44.5271C91.484 46.0345 92.8042 48.0514 93.4599 50.3171Z" fill="#F9FFFE"/>
<path d="M51.2852 105.404C51.2852 103.359 51.519 101.357 51.9867 99.3984C52.4835 97.4109 53.1703 95.5404 54.0471 93.7868C54.9239 92.004 55.9615 90.3819 57.1598 88.9206C58.3873 87.43 59.7171 86.1441 61.1492 85.0627C62.6106 83.9813 64.1596 83.1483 65.7963 82.5638C67.433 81.95 69.1135 81.6431 70.8379 81.6431C72.8545 81.6431 74.4181 82.0669 75.5287 82.9145C76.6686 83.7621 77.2385 84.9458 77.2385 86.4655C77.2385 87.0501 77.1508 87.6492 76.9755 88.263C76.8293 88.8767 76.5955 89.4905 76.274 90.1043C75.9818 90.6888 75.631 91.2587 75.2219 91.814C74.8127 92.3693 74.3597 92.8516 73.8628 93.2607C73.1029 93.1438 72.4453 92.8077 71.89 92.2524C71.3347 91.6679 70.984 90.9957 70.8379 90.2358C71.8608 89.3882 72.6645 88.5114 73.2491 87.6054C73.8628 86.6701 74.1697 85.8226 74.1697 85.0627C74.1697 83.7767 73.366 83.1337 71.7585 83.1337C71.0863 83.1337 70.3848 83.2798 69.6542 83.5721C68.9527 83.8351 68.2367 84.2151 67.506 84.7119C66.7754 85.2088 66.0593 85.8079 65.3579 86.5094C64.6856 87.2108 64.0573 87.9853 63.4727 88.8329C59.4102 94.6782 57.379 100.655 57.379 106.763C57.379 108.926 57.7151 110.665 58.3873 111.98C59.0595 113.296 59.9509 114.07 61.0615 114.304C62.3183 114.012 63.9111 113.208 65.8401 111.893C67.7691 110.578 69.8734 108.868 72.1531 106.763C72.4453 107.056 72.6207 107.363 72.6791 107.684C71.8316 108.795 70.9548 109.861 70.0487 110.884C69.1427 111.907 68.2367 112.843 67.3307 113.69C66.4539 114.538 65.5771 115.283 64.7003 115.926C63.8527 116.569 63.0636 117.066 62.3329 117.417C58.7088 117.358 55.9615 116.321 54.091 114.304C52.2205 112.287 51.2852 109.321 51.2852 105.404ZM80.7296 115.531C79.0637 115.356 77.7339 114.625 76.7402 113.339C75.7465 112.053 75.2496 110.417 75.2496 108.429C75.2496 107.26 75.425 106.047 75.7757 104.791C76.1264 103.534 76.6233 102.321 77.2662 101.152C77.9092 99.9537 78.6691 98.8284 79.5459 97.7763C80.4227 96.7241 81.3726 95.8181 82.3955 95.0582C84.003 93.8599 85.5082 93.2607 86.911 93.2607C87.8463 93.7576 88.7669 94.7951 89.673 96.3734C89.8191 96.3734 89.9506 96.3734 90.0675 96.3734C90.1844 96.3442 90.3159 96.3295 90.4621 96.3295C92.0111 96.3295 92.7856 97.7032 92.7856 100.451C92.7856 102.292 92.4787 104.045 91.865 105.711C91.2804 107.348 90.4475 108.839 89.3661 110.183C88.3139 111.527 87.0426 112.667 85.552 113.603C84.0907 114.509 82.4832 115.152 80.7296 115.531ZM82.9654 101.722C82.4686 102.394 82.001 103.125 81.5626 103.914C81.1242 104.703 80.7442 105.507 80.4227 106.325C80.1012 107.114 79.8528 107.889 79.6774 108.649C79.5021 109.379 79.4144 110.037 79.4144 110.621C79.4144 111.323 79.5313 111.995 79.7651 112.638C79.9989 113.281 80.262 113.646 80.5542 113.734C81.8694 113.442 83.0677 112.901 84.1491 112.112C85.2597 111.294 86.2096 110.285 86.9987 109.087C87.8171 107.889 88.4454 106.53 88.8838 105.01C89.3515 103.49 89.5853 101.868 89.5853 100.144C89.5853 99.3837 89.5414 98.7846 89.4538 98.3462C89.3661 97.9078 89.2199 97.5278 89.0154 97.2063C87.7294 97.5863 86.5749 98.2001 85.552 99.0476C84.5583 99.8952 83.6961 100.787 82.9654 101.722ZM124.778 82.3446C124.281 82.3446 123.741 82.6515 123.156 83.2652C122.572 83.879 121.943 84.7412 121.271 85.8518C120.628 86.9332 119.97 88.2338 119.298 89.7535C118.655 91.2733 118.027 92.9539 117.413 94.7951C118.085 94.8244 118.787 94.8682 119.517 94.9267C120.277 94.9559 120.92 95.0143 121.446 95.102C121.505 95.2189 121.534 95.4235 121.534 95.7158C121.534 96.0373 121.49 96.388 121.403 96.7679C121.344 97.1479 121.242 97.4402 121.096 97.6447C120.365 97.5863 119.634 97.5278 118.904 97.4694C118.202 97.3817 117.472 97.3086 116.712 97.2502C115.25 101.868 113.935 105.887 112.766 109.306C111.626 112.726 110.559 115.648 109.566 118.074C108.601 120.529 107.695 122.531 106.848 124.08C106 125.629 105.138 126.842 104.261 127.719C103.384 128.625 102.464 129.239 101.499 129.56C100.564 129.911 99.5263 130.086 98.3865 130.086C97.0713 130.086 95.9607 129.882 95.0547 129.473C94.1779 129.093 93.3595 128.567 92.5996 127.894C91.7228 128.713 90.8168 129.283 89.8815 129.604C88.9171 129.926 87.8503 130.086 86.6812 130.086C84.6061 130.086 82.8379 129.385 81.3766 127.982C81.3766 127.777 81.435 127.558 81.5519 127.324C81.6688 127.091 81.8004 126.93 81.9465 126.842C82.3557 127.339 82.8964 127.719 83.5686 127.982C84.2408 128.274 84.9422 128.42 85.6729 128.42C86.4328 128.42 87.1342 128.245 87.7772 127.894C88.391 127.573 89.0047 127.018 89.6185 126.228C90.203 125.439 90.7876 124.402 91.3721 123.116C91.9859 121.83 92.6435 120.237 93.3449 118.337C94.4263 115.415 95.4784 112.258 96.5014 108.868C97.5243 105.477 98.6495 101.693 99.8771 97.5132C99.2048 97.5717 98.5472 97.6301 97.9043 97.6886C97.2613 97.747 96.6621 97.8055 96.1068 97.8639C95.9899 97.747 95.8876 97.5863 95.7999 97.3817C95.7415 97.1771 95.7123 96.9871 95.7123 96.8118C96.0922 96.6949 96.6767 96.5634 97.4659 96.4172C98.2842 96.2419 99.2487 96.0665 100.359 95.8911C101.032 93.6991 101.762 91.7263 102.551 89.9727C103.34 88.2191 104.203 86.714 105.138 85.4572C106.073 84.2005 107.081 83.236 108.163 82.5638C109.273 81.8916 110.472 81.5555 111.758 81.5555C112.898 81.5555 113.979 81.8477 115.002 82.4323C116.054 83.0168 117.019 83.6452 117.895 84.3174C118.86 83.2945 119.868 82.4761 120.92 81.8623C122.002 81.2486 123.054 80.9417 124.077 80.9417C124.398 80.9417 124.72 80.9709 125.041 81.0294C125.392 81.0586 125.655 81.0732 125.83 81.0732C126.093 80.8686 126.444 80.6933 126.883 80.5471C127.321 80.3718 127.701 80.2841 128.022 80.2841C128.373 80.2841 128.826 80.4741 129.381 80.854C129.148 81.2632 128.899 81.8185 128.636 82.5199C128.373 83.2214 128.154 83.9082 127.979 84.5804C127.248 86.7432 126.473 88.1461 125.655 88.7891C125.333 88.7891 125.158 88.3653 125.129 87.5177C125.07 86.8747 124.954 86.3194 124.778 85.8518C124.632 85.3549 124.559 84.8142 124.559 84.2297C124.559 84.0543 124.574 83.8498 124.603 83.6159C124.632 83.3529 124.691 82.9291 124.778 82.3446ZM104.699 118.337C105.196 116.993 105.722 115.473 106.278 113.778C106.833 112.083 107.388 110.315 107.944 108.473C108.528 106.632 109.113 104.747 109.697 102.818C110.282 100.86 110.837 98.9453 111.363 97.0748H110.53C109.77 97.0748 108.952 97.0894 108.075 97.1187C107.228 97.1187 106.351 97.1333 105.445 97.1625C104.1 101.517 102.873 105.346 101.762 108.649C100.681 111.922 99.6579 114.757 98.6934 117.154C97.7581 119.579 96.8521 121.581 95.9753 123.16C95.1277 124.767 94.2802 126.068 93.4326 127.061C93.871 127.471 94.4117 127.792 95.0547 128.026C95.7269 128.289 96.3845 128.42 97.0275 128.42C97.7581 128.42 98.4303 128.245 99.0441 127.894C99.6871 127.573 100.301 127.018 100.885 126.228C101.499 125.439 102.113 124.402 102.727 123.116C103.34 121.83 103.998 120.237 104.699 118.337ZM111.977 94.839C112.503 93.1146 113.175 91.4633 113.994 89.8851C114.841 88.3068 115.776 86.8747 116.799 85.5888C116.156 85.1796 115.557 84.9019 115.002 84.7558C114.447 84.6097 114.052 84.5366 113.818 84.5366C113.058 84.5366 112.357 84.7704 111.714 85.238C111.071 85.6764 110.443 86.3486 109.829 87.2547C109.215 88.1607 108.601 89.2713 107.987 90.5865C107.403 91.9017 106.775 93.4361 106.102 95.1897C107.038 95.102 107.987 95.029 108.952 94.9705C109.946 94.9121 110.954 94.8682 111.977 94.839ZM135.905 95.8473C135.788 97.6594 135.466 99.223 134.94 100.538C134.414 101.824 133.654 102.964 132.66 103.958C131.696 104.922 130.512 105.799 129.109 106.588C127.707 107.377 126.07 108.137 124.199 108.868C124.199 109.043 124.185 109.233 124.156 109.438C124.156 109.613 124.156 109.803 124.156 110.008C124.156 110.388 124.185 110.782 124.243 111.191C124.302 111.6 124.404 111.98 124.55 112.331C124.696 112.682 124.901 112.974 125.164 113.208C125.427 113.413 125.763 113.515 126.172 113.515C126.961 113.515 127.736 113.339 128.496 112.989C129.256 112.638 129.972 112.214 130.644 111.717C131.345 111.191 131.988 110.636 132.573 110.051C133.187 109.438 133.727 108.882 134.195 108.386C134.487 108.649 134.736 108.897 134.94 109.131C133.625 110.884 132.178 112.346 130.6 113.515C129.051 114.655 127.575 115.385 126.172 115.707C124.156 115.473 122.577 114.742 121.437 113.515C120.327 112.258 119.772 110.753 119.772 108.999C119.772 107.801 119.932 106.588 120.254 105.361C120.604 104.104 121.072 102.906 121.657 101.766C122.27 100.597 122.972 99.5006 123.761 98.4777C124.579 97.4548 125.441 96.5634 126.348 95.8035C127.283 95.0436 128.233 94.4444 129.197 94.006C130.191 93.5676 131.17 93.3484 132.134 93.3484C133.479 93.5238 134.736 94.3567 135.905 95.8473ZM132.88 97.294C132.091 97.4109 131.272 97.7324 130.425 98.2585C129.577 98.7846 128.773 99.486 128.013 100.363C127.283 101.24 126.611 102.263 125.997 103.432C125.383 104.601 124.901 105.857 124.55 107.202C126.888 106.033 128.832 104.601 130.381 102.906C131.93 101.181 132.763 99.3107 132.88 97.294ZM153.629 95.8473C153.512 97.6594 153.191 99.223 152.665 100.538C152.138 101.824 151.379 102.964 150.385 103.958C149.42 104.922 148.237 105.799 146.834 106.588C145.431 107.377 143.794 108.137 141.924 108.868C141.924 109.043 141.909 109.233 141.88 109.438C141.88 109.613 141.88 109.803 141.88 110.008C141.88 110.388 141.909 110.782 141.968 111.191C142.026 111.6 142.128 111.98 142.274 112.331C142.421 112.682 142.625 112.974 142.888 113.208C143.151 113.413 143.487 113.515 143.897 113.515C144.686 113.515 145.46 113.339 146.22 112.989C146.98 112.638 147.696 112.214 148.368 111.717C149.07 111.191 149.713 110.636 150.297 110.051C150.911 109.438 151.452 108.882 151.919 108.386C152.212 108.649 152.46 108.897 152.665 109.131C151.349 110.884 149.903 112.346 148.324 113.515C146.775 114.655 145.299 115.385 143.897 115.707C141.88 115.473 140.302 114.742 139.162 113.515C138.051 112.258 137.496 110.753 137.496 108.999C137.496 107.801 137.657 106.588 137.978 105.361C138.329 104.104 138.796 102.906 139.381 101.766C139.995 100.597 140.696 99.5006 141.485 98.4777C142.304 97.4548 143.166 96.5634 144.072 95.8035C145.007 95.0436 145.957 94.4444 146.921 94.006C147.915 93.5676 148.894 93.3484 149.859 93.3484C151.203 93.5238 152.46 94.3567 153.629 95.8473ZM150.604 97.294C149.815 97.4109 148.997 97.7324 148.149 98.2585C147.301 98.7846 146.498 99.486 145.738 100.363C145.007 101.24 144.335 102.263 143.721 103.432C143.107 104.601 142.625 105.857 142.274 107.202C144.613 106.033 146.556 104.601 148.105 102.906C149.654 101.181 150.487 99.3107 150.604 97.294Z" fill="#F9FFFE"/>
<path d="M159.32 119.457H115.22L116.57 118.007H159.32V119.457Z" fill="#F9FFFE"/>
<path d="M93.4799 119.457H53.6699V118.007H95.2099L93.4799 119.457Z" fill="#F9FFFE"/>
<path d="M105.14 150.627L107.31 157.297H114.33L108.65 161.427L110.82 168.097L105.14 163.977L99.47 168.097L101.64 161.427L95.96 157.297H102.98L105.14 150.627Z" fill="#F9FFFE"/>
<path d="M83.84 150.627L86.01 157.297H93.02L87.35 161.427L89.52 168.097L83.84 163.977L78.16 168.097L80.33 161.427L74.65 157.297H81.67L83.84 150.627Z" fill="#F9FFFE"/>
<path d="M126.45 150.627L128.62 157.297H135.63L129.96 161.427L132.13 168.097L126.45 163.977L120.77 168.097L122.94 161.427L117.26 157.297H124.28L126.45 150.627Z" fill="#F9FFFE"/>
<path d="M64.2029 132.716V135.605H67.6343V135.876H64.2029V138.757H63.8958V132.436H68.0406V132.716H64.2029ZM74.0264 138.757L72.4642 136.581C72.2596 136.617 72.0308 136.635 71.778 136.635H69.8907V138.757H69.5837V132.436H71.778C72.5666 132.436 73.1806 132.622 73.6201 132.996C74.0656 133.363 74.2883 133.875 74.2883 134.531C74.2883 135.036 74.1559 135.461 73.891 135.804C73.6321 136.141 73.2589 136.376 72.7713 136.508L74.3876 138.757H74.0264ZM71.796 136.355C72.5004 136.355 73.0422 136.198 73.4214 135.885C73.8007 135.566 73.9903 135.115 73.9903 134.531C73.9903 133.953 73.8007 133.507 73.4214 133.194C73.0422 132.875 72.5004 132.716 71.796 132.716H69.8907V136.355H71.796ZM80.3364 138.477V138.757H76.0652V132.436H80.2099V132.716H76.3722V135.407H79.8036V135.687H76.3722V138.477H80.3364ZM83.6952 138.793C83.2377 138.793 82.8013 138.712 82.3859 138.549C81.9765 138.387 81.6605 138.176 81.4377 137.917L81.6003 137.7C81.811 137.941 82.1029 138.14 82.4762 138.296C82.8554 138.447 83.2588 138.522 83.6862 138.522C84.3183 138.522 84.7939 138.399 85.1129 138.152C85.438 137.899 85.6006 137.577 85.6006 137.186C85.6006 136.885 85.5163 136.644 85.3477 136.463C85.1792 136.277 84.9715 136.138 84.7247 136.048C84.4778 135.952 84.1407 135.852 83.7133 135.75C83.2558 135.635 82.8886 135.524 82.6116 135.416C82.3347 135.307 82.0999 135.142 81.9073 134.919C81.7147 134.696 81.6183 134.398 81.6183 134.025C81.6183 133.73 81.6966 133.459 81.8531 133.212C82.0096 132.966 82.2474 132.77 82.5665 132.625C82.8916 132.475 83.2949 132.4 83.7765 132.4C84.1196 132.4 84.4568 132.451 84.7879 132.553C85.125 132.656 85.4109 132.797 85.6457 132.978L85.5103 133.221C85.2634 133.041 84.9865 132.905 84.6795 132.815C84.3785 132.719 84.0805 132.671 83.7855 132.671C83.1715 132.671 82.7049 132.8 82.3859 133.059C82.0728 133.312 81.9163 133.634 81.9163 134.025C81.9163 134.332 82.0006 134.579 82.1692 134.766C82.3437 134.946 82.5544 135.085 82.8013 135.181C83.0541 135.277 83.3912 135.377 83.8126 135.479C84.2701 135.593 84.6374 135.705 84.9143 135.813C85.1912 135.915 85.423 136.078 85.6096 136.301C85.8022 136.517 85.8986 136.809 85.8986 137.177C85.8986 137.472 85.8173 137.742 85.6547 137.989C85.4982 138.236 85.2544 138.432 84.9233 138.576C84.5922 138.721 84.1829 138.793 83.6952 138.793ZM92.5944 132.436V138.757H92.2874V135.687H87.8537V138.757H87.5467V132.436H87.8537V135.407H92.2874V132.436H92.5944ZM94.91 132.436H95.217V138.477H98.9193V138.757H94.91V132.436ZM101.266 136.599V138.757H100.959V136.599L98.4031 132.436H98.7372L101.121 136.301L103.505 132.436H103.83L101.266 136.599ZM111.778 138.757L110.216 136.581C110.011 136.617 109.782 136.635 109.529 136.635H107.642V138.757H107.335V132.436H109.529C110.318 132.436 110.932 132.622 111.371 132.996C111.817 133.363 112.04 133.875 112.04 134.531C112.04 135.036 111.907 135.461 111.642 135.804C111.384 136.141 111.01 136.376 110.523 136.508L112.139 138.757H111.778ZM109.547 136.355C110.252 136.355 110.794 136.198 111.173 135.885C111.552 135.566 111.742 135.115 111.742 134.531C111.742 133.953 111.552 133.507 111.173 133.194C110.794 132.875 110.252 132.716 109.547 132.716H107.642V136.355H109.547ZM116.435 138.793C115.821 138.793 115.264 138.654 114.765 138.378C114.271 138.101 113.883 137.718 113.6 137.231C113.317 136.743 113.175 136.198 113.175 135.596C113.175 134.994 113.317 134.45 113.6 133.962C113.883 133.474 114.271 133.092 114.765 132.815C115.264 132.538 115.821 132.4 116.435 132.4C117.049 132.4 117.606 132.538 118.106 132.815C118.605 133.092 118.997 133.474 119.28 133.962C119.563 134.45 119.704 134.994 119.704 135.596C119.704 136.198 119.563 136.743 119.28 137.231C118.997 137.718 118.605 138.101 118.106 138.378C117.606 138.654 117.049 138.793 116.435 138.793ZM116.435 138.513C116.989 138.513 117.492 138.387 117.943 138.134C118.395 137.881 118.75 137.532 119.009 137.086C119.268 136.641 119.397 136.144 119.397 135.596C119.397 135.049 119.268 134.552 119.009 134.106C118.75 133.661 118.395 133.312 117.943 133.059C117.492 132.806 116.989 132.68 116.435 132.68C115.881 132.68 115.379 132.806 114.927 133.059C114.482 133.312 114.13 133.661 113.871 134.106C113.612 134.552 113.482 135.049 113.482 135.596C113.482 136.144 113.612 136.641 113.871 137.086C114.13 137.532 114.482 137.881 114.927 138.134C115.379 138.387 115.881 138.513 116.435 138.513ZM125.16 136.906H121.376L120.527 138.757H120.193L123.119 132.436H123.417L126.343 138.757H126.008L125.16 136.906ZM125.042 136.644L123.272 132.788L121.493 136.644H125.042ZM129.172 138.793C128.714 138.793 128.278 138.712 127.862 138.549C127.453 138.387 127.137 138.176 126.914 137.917L127.077 137.7C127.287 137.941 127.579 138.14 127.952 138.296C128.332 138.447 128.735 138.522 129.162 138.522C129.795 138.522 130.27 138.399 130.589 138.152C130.914 137.899 131.077 137.577 131.077 137.186C131.077 136.885 130.993 136.644 130.824 136.463C130.655 136.277 130.448 136.138 130.201 136.048C129.954 135.952 129.617 135.852 129.19 135.75C128.732 135.635 128.365 135.524 128.088 135.416C127.811 135.307 127.576 135.142 127.384 134.919C127.191 134.696 127.095 134.398 127.095 134.025C127.095 133.73 127.173 133.459 127.329 133.212C127.486 132.966 127.724 132.77 128.043 132.625C128.368 132.475 128.771 132.4 129.253 132.4C129.596 132.4 129.933 132.451 130.264 132.553C130.601 132.656 130.887 132.797 131.122 132.978L130.987 133.221C130.74 133.041 130.463 132.905 130.156 132.815C129.855 132.719 129.557 132.671 129.262 132.671C128.648 132.671 128.181 132.8 127.862 133.059C127.549 133.312 127.393 133.634 127.393 134.025C127.393 134.332 127.477 134.579 127.645 134.766C127.82 134.946 128.031 135.085 128.278 135.181C128.53 135.277 128.868 135.377 129.289 135.479C129.746 135.593 130.114 135.705 130.391 135.813C130.667 135.915 130.899 136.078 131.086 136.301C131.279 136.517 131.375 136.809 131.375 137.177C131.375 137.472 131.294 137.742 131.131 137.989C130.975 138.236 130.731 138.432 130.4 138.576C130.068 138.721 129.659 138.793 129.172 138.793ZM134.136 132.716H131.815V132.436H136.754V132.716H134.434V138.757H134.136V132.716ZM142.215 138.477V138.757H137.944V132.436H142.088V132.716H138.251V135.407H141.682V135.687H138.251V138.477H142.215ZM143.975 132.436H146.413C147.07 132.436 147.651 132.571 148.156 132.842C148.668 133.113 149.062 133.489 149.339 133.971C149.622 134.447 149.764 134.988 149.764 135.596C149.764 136.204 149.622 136.749 149.339 137.231C149.062 137.706 148.668 138.08 148.156 138.35C147.651 138.621 147.07 138.757 146.413 138.757H143.975V132.436ZM146.395 138.477C147.009 138.477 147.545 138.353 148.003 138.107C148.466 137.86 148.824 137.52 149.077 137.086C149.33 136.647 149.457 136.15 149.457 135.596C149.457 135.042 149.33 134.549 149.077 134.115C148.824 133.676 148.466 133.333 148.003 133.086C147.545 132.839 147.009 132.716 146.395 132.716H144.282V138.477H146.395Z" fill="#F9FFFE"/>
</svg>
